HIERARCHY
ROOT Hips
{
  OFFSET 13.6774 106.653 -34.4427
  CHANNELS 6 Xposition Yposition Zposition Zrotation Xrotation Yrotation
  JOINT ToSpine
  {
    OFFSET -2.69724 7.43032 -0.144315
    CHANNELS 3 Zrotation Xrotation Yrotation
    JOINT Spine
    {
      OFFSET -0.0310711 10.7595 1.96963
      CHANNELS 3 Zrotation Xrotation Yrotation
      JOINT Spine1
      {
        OFFSET 19.9056 3.91189 0.764692
        CHANNELS 3 Zrotation Xrotation Yrotation
        JOINT Neck
        {
          OFFSET 25.9749 7.03908 -0.130764
          CHANNELS 3 Zrotation Xrotation Yrotation
          JOINT Head
          {
            OFFSET 9.52751 0.295786 -0.907742
            CHANNELS 3 Zrotation Xrotation Yrotation
            End Site
            {
              OFFSET 16.4037 0.713936 2.7358
            }
          }
        }
        JOINT LeftShoulder
        {
          OFFSET 17.7449 4.33886 11.7777
          CHANNELS 3 Zrotation Xrotation Yrotation
          JOINT LeftArm
          {
            OFFSET 0.911315 1.27913 9.80584
            CHANNELS 3 Zrotation Xrotation Yrotation
            JOINT LeftForeArm
            {
              OFFSET 28.6126 1.18197 -3.53199
              CHANNELS 3 Zrotation Xrotation Yrotation
              JOINT LeftHand
              {
                OFFSET 27.5088 0.0218783 0.327423
                CHANNELS 3 Zrotation Xrotation Yrotation
                End Site
                {
                  OFFSET 18.6038 -0.000155887 0.382096
                }
              }
            }
          }
        }
        JOINT RightShoulder
        {
          OFFSET 17.1009 2.89543 -12.2328
          CHANNELS 3 Zrotation Xrotation Yrotation
          JOINT RightArm
          {
            OFFSET 1.4228 0.178766 -10.211
            CHANNELS 3 Zrotation Xrotation Yrotation
            JOINT RightForeArm
            {
              OFFSET 28.733 1.87905 2.64907
              CHANNELS 3 Zrotation Xrotation Yrotation
              JOINT RightHand
              {
                OFFSET 27.4588 0.290562 -0.101845
                CHANNELS 3 Zrotation Xrotation Yrotation
                End Site
                {
                  OFFSET 17.8396 -0.255518 -0.000602873
                }
              }
            }
          }
        }
      }
    }
  }
  JOINT LeftUpLeg
  {
    OFFSET -5.61296 -2.22332 -10.2353
    CHANNELS 3 Zrotation Xrotation Yrotation
    JOINT LeftLeg
    {
      OFFSET 2.56703 -44.7417 -7.93097
      CHANNELS 3 Zrotation Xrotation Yrotation
      JOINT LeftFoot
      {
        OFFSET 3.16933 -46.5642 -3.96578
        CHANNELS 3 Zrotation Xrotation Yrotation
        JOINT LeftToeBase
        {
          OFFSET 0.346054 -6.02161 12.8035
          CHANNELS 3 Zrotation Xrotation Yrotation
          End Site
          {
            OFFSET 0.134235 -1.35082 5.13018
          }
        }
      }
    }
  }
  JOINT RightUpLeg
  {
    OFFSET -5.7928 -1.72406 10.6446
    CHANNELS 3 Zrotation Xrotation Yrotation
    JOINT RightLeg
    {
      OFFSET -2.57161 -44.7178 -7.85259
      CHANNELS 3 Zrotation Xrotation Yrotation
      JOINT RightFoot
      {
        OFFSET -3.10148 -46.5936 -4.03391
        CHANNELS 3 Zrotation Xrotation Yrotation
        JOINT RightToeBase
        {
          OFFSET -0.0828122 -6.13587 12.8035
          CHANNELS 3 Zrotation Xrotation Yrotation
          End Site
          {
            OFFSET -0.131328 -1.35082 5.13018
          }
        }
      }
    }
  }
}
MOTION
Frames: 15
Frame Time: 0.03333333333333333
0.0000 93.1000 0.0000 -67.0370 -15.6200 129.8188 -71.0054 -0.1041 88.0147 116.8481 60.4811 -36.1428 -10.7778 20.9281 -16.1745 -152.0684 -2.9004 -150.5310 -151.1949 33.2948 -172.3929 0.7824 -8.0556 -26.9111 -102.1246 20.4149 -71.7857 -3.0977 0.3482 -108.1686 -0.0873 -0.0040 -0.3445 -2.7528 8.3763 39.3635 -66.9001 -32.7043 72.7453 10.0343 -5.6019 64.6874 -0.0931 0.1383 0.0643 -22.9782 45.4745 70.5439 -22.2636 78.0654 -1.7887 -7.1679 -21.5738 -2.2605 11.7587 -22.0772 15.2060 -22.1135 -27.8742 121.6552 0.9185 39.0648 -3.9700 -6.1481 -14.0947 1.1616 2.9727 -4.3695 -25.1083 
0.0000 93.1000 0.0000 -68.8697 -20.4955 134.8792 -71.0099 0.2170 88.0106 122.1790 59.9461 -40.1420 -10.6221 22.4459 -16.2888 -151.3272 -0.3698 -149.5053 -154.3676 35.7335 -171.2528 0.1775 -9.0035 -28.9954 -101.2355 24.4921 -70.8402 -2.1513 -0.6043 -110.2643 -0.0531 0.1837 -0.3916 -3.1781 9.3875 41.9047 -62.0158 -37.0143 90.0823 13.3867 -8.8835 61.2019 0.0086 -0.1202 -0.1436 -9.4969 42.7276 66.4649 -147.3583 78.2536 122.5820 -5.7826 -20.3155 -2.4889 14.7433 -28.6419 20.0614 -22.0405 -30.2268 107.7940 0.8654 38.7916 -0.0222 -8.2509 -14.2615 1.2141 3.1485 -8.0437 -28.7840 
0.0000 93.1000 0.0000 -71.1853 -27.0878 138.8046 -71.0105 -0.0127 88.0090 126.2435 62.0044 -44.4574 -11.4917 24.1440 -14.9898 -150.0754 3.1204 -149.2766 -157.2568 39.5258 -169.3542 0.4475 -9.6599 -30.3685 -98.9071 29.0029 -73.7257 2.0877 -2.0356 -112.3125 -0.1143 -0.1381 -0.3850 -3.1533 9.5159 44.2359 -59.0587 -38.1061 105.8770 16.9116 -12.1493 58.1640 0.0732 0.0865 0.1558 -3.8976 39.9327 72.7363 -163.9418 64.1733 133.9772 -7.6456 -18.1681 -2.0835 15.8241 -28.9624 21.4423 -24.8447 -31.2503 100.9901 0.7567 39.1085 -5.1059 -9.2046 -15.4770 1.4178 3.1506 -5.9244 -27.3878 
0.0000 93.1000 0.0000 -73.2214 -36.2569 144.1184 -71.0116 -0.0584 88.0084 129.2339 63.4605 -46.6367 -11.8480 25.3174 -12.9239 -146.2870 7.0714 -154.4462 -157.1580 43.0592 -171.3684 0.3340 -10.3315 -30.4872 -94.2713 32.7720 -78.6876 6.4921 -3.1819 -113.1386 -0.2072 -0.1838 -0.3546 -3.2130 9.3753 44.7337 -59.1122 -37.1925 115.8757 21.1882 -13.0227 59.9400 -0.0558 0.0335 0.2604 -0.6835 35.0536 82.8255 -168.2245 51.0629 133.0326 -8.6523 -16.7918 -1.6473 16.9995 -29.5613 21.5887 -31.0026 -31.1897 92.3978 0.0868 38.1885 -8.0128 -9.3274 -17.7877 1.4861 4.9350 -1.1710 -31.4457 
0.0000 93.1000 0.0000 -77.0318 -47.8266 153.1272 -71.0108 0.1497 88.0053 130.0243 64.4178 -43.3749 -10.6533 25.1313 -10.7301 -142.9819 12.2503 -157.2690 -160.0800 47.9523 -168.3172 0.0917 -11.1629 -30.1851 -89.1064 34.9209 -87.6397 10.4882 -4.8484 -111.1227 -0.3534 0.0278 -0.2913 -3.2056 9.0114 43.2474 -62.4761 -35.2906 120.8507 25.0586 -12.3313 62.3459 -0.0214 -0.1798 0.1009 1.1112 27.7685 92.1764 -169.5659 44.5226 135.7193 -8.7024 -11.3256 -0.9830 16.7141 -28.7725 16.1897 -42.0034 -30.9625 75.8252 -0.1920 32.9933 -9.0682 -7.5143 -18.5942 1.3903 4.3509 1.3153 -28.6722 
0.0000 93.1000 0.0000 -79.0424 -59.1269 162.1749 -71.0024 -0.1341 88.0071 130.9977 65.9811 -42.6020 -10.7676 24.9259 -7.2342 -138.2853 16.9601 -162.3816 -164.3599 53.0548 -165.3266 0.4387 -11.8885 -29.1967 -84.0838 35.4757 -98.6901 11.3092 -5.2948 -108.1601 -0.4093 -0.1852 0.1600 -2.7095 8.9448 39.2118 -68.3177 -33.1337 122.0081 24.9878 -12.2847 65.1694 0.3741 0.1636 0.5573 -7.2700 21.8296 100.5528 -167.7095 46.2008 138.5564 -11.2793 -3.1160 0.2264 13.8184 -26.5060 12.8256 -52.0807 -27.4674 63.5679 0.8924 28.1985 -12.0479 -6.3528 -17.3820 1.2418 2.3404 -0.1425 -21.4016 
0.0000 93.1000 0.0000 -77.2634 -69.1212 170.0343 -70.9886 0.1872 88.0085 133.0950 67.7994 -43.8439 -10.3949 25.4870 -4.3887 -134.3302 20.4343 -168.3919 -168.4171 57.3685 -161.1551 1.0820 -12.6582 -27.8227 -80.3154 35.0003 -109.7181 13.8885 -3.8951 -104.1998 -0.5386 0.1183 0.3972 -1.9006 8.6774 35.8185 -73.0282 -27.8681 120.1742 20.8093 -9.6719 68.0551 0.5068 -0.0682 0.7078 -19.8302 19.6244 107.1725 -167.1689 54.3466 138.2100 -13.7526 4.5723 0.9941 11.0840 -26.0899 7.8557 -55.9693 -20.1165 67.0798 3.0245 25.0404 -13.0077 -7.1529 -12.9206 1.2971 0.9692 -6.0295 -16.1217 
0.0000 93.1000 0.0000 -65.7822 -77.3980 -173.7390 -70.9909 -0.5183 87.9957 124.1351 71.3623 -35.8156 -8.5782 25.7763 -1.9061 -133.2533 22.8531 -172.3586 -173.4233 60.0833 -156.3447 0.7343 -13.0294 -24.9270 -77.7450 35.0589 -120.6469 16.0208 -3.5483 -101.1080 0.7495 -0.4370 0.2880 -1.9749 8.8766 30.9091 -78.7144 -23.2475 119.9646 18.3217 -8.2642 69.9698 0.6489 0.3617 0.4504 -30.9286 17.6419 108.8116 -164.6185 65.5508 136.8176 -15.0753 6.0221 2.2101 10.6506 -21.9707 3.8667 -55.8340 -12.6593 73.5025 1.8608 26.0422 -6.9474 -8.2712 -11.2041 0.8838 3.9040 -7.8107 -21.4225 
0.0000 93.1000 0.0000 -14.2120 -83.7814 -115.7630 -71.0016 0.1275 87.9967 108.9363 72.2929 -21.5266 -7.3950 24.3028 -1.0012 -133.0965 25.0681 -177.2785 -176.1952 63.1087 -155.3621 -1.9787 -13.3182 -20.2013 -74.2494 34.9181 -132.5549 17.3321 -3.0504 -97.1834 1.1745 1.0441 -0.5364 -3.2062 8.3108 27.0441 -84.8000 -19.3232 118.6239 14.9572 -6.5206 68.6908 -0.6709 -1.4280 -1.4629 -40.0418 14.8995 106.0017 -150.0664 77.4096 127.9923 -13.8976 6.6106 3.2168 9.4024 -21.3289 4.6362 -54.4123 -7.8929 74.9805 1.8229 27.0487 -9.0981 -8.6912 -12.9579 1.8955 2.8445 -7.2487 -20.6364 
0.0000 93.1000 0.0000 57.0572 -76.6599 -40.0062 -71.0023 0.1641 88.0015 103.9652 70.4026 -15.4859 -6.3608 21.1509 0.9634 -129.2609 26.1279 176.5107 -177.4840 65.0186 -154.2861 0.0818 -13.2645 -15.8227 -70.1346 33.2865 -142.6331 19.5894 -2.4975 -92.9309 -0.5797 0.4761 0.2763 -1.8674 7.6401 24.9867 -90.8243 -13.6986 116.9137 11.5583 -5.2426 67.0446 -0.1420 -0.2884 -0.2658 -46.8343 13.0225 100.0285 -53.2676 84.0338 43.0783 -12.2140 9.0863 2.4725 4.0427 -13.8007 2.4757 -50.8006 -6.8292 71.2185 3.8177 29.1778 -15.1551 -9.9345 -13.8958 1.6378 0.5650 -6.6923 -12.8878 
0.0000 93.1000 0.0000 67.8695 -65.5744 -24.9775 -70.9951 3.4691 88.0016 102.2007 69.9427 -14.3851 -4.8808 20.3677 2.8264 -127.2199 27.9231 169.7181 -176.4626 67.7362 -155.8816 0.1993 -14.0930 -13.7945 -67.2853 30.3896 -151.7110 18.3293 -0.4128 -90.1316 -0.3224 3.3338 -1.1893 -0.9910 6.9165 23.1296 -98.3085 -8.1205 114.1220 10.2206 -5.5601 65.9391 -2.5022 -2.9877 -2.5624 -52.1270 12.9914 97.6338 -8.1129 71.4194 9.0604 -10.3577 8.6382 0.8521 1.3437 -3.4003 1.4750 -47.0250 -8.0229 69.0356 3.1490 33.2927 -10.2322 -6.4628 -13.9061 2.3965 0.4187 3.7811 -16.6459 
0.0000 93.1000 0.0000 69.0643 -54.2672 -20.9144 -71.0066 0.7619 87.9918 101.1625 68.9310 -14.8187 -5.7264 18.7874 2.7412 -130.1631 30.5552 166.7390 177.0231 70.9383 -152.1835 -0.0336 -14.1991 -12.1163 -63.6309 27.7019 -158.6630 20.0776 0.5116 -89.3488 -0.1135 1.0125 -0.3905 -1.2208 6.2947 22.0177 -106.7261 -3.6163 109.0193 8.7536 -4.8487 64.7457 -0.8891 -0.7439 -0.5621 -56.1783 13.9052 95.7751 -2.9065 57.3417 5.6022 -7.9772 5.4029 0.9176 2.2952 -6.1391 0.1467 -41.8235 -9.8290 65.5398 0.0509 37.5374 -9.0141 -4.4456 -13.6145 1.0866 0.6073 14.0835 -15.0629 
0.0000 93.1000 0.0000 68.9819 -45.0787 -17.0875 -71.0061 0.1572 87.9934 102.0176 68.1693 -15.4685 -7.1132 18.0314 3.7464 -131.3759 32.8735 163.0902 173.2329 73.8264 -148.7507 0.0447 -14.3568 -11.4002 -62.4462 26.0613 -162.8049 21.1024 0.1792 -90.0413 -0.3466 0.3638 -0.2253 -1.2904 5.5593 21.9550 -115.5663 0.3049 104.8462 7.3268 -4.4120 64.9629 -0.1967 -0.2092 -0.1491 -54.7416 13.1023 92.4121 -2.3347 47.3708 1.3827 -6.8406 -0.5335 0.1059 5.6466 -15.1377 0.6274 -38.9359 -13.7451 61.3118 -0.8520 38.9295 -14.0527 -3.9273 -11.8676 0.7879 -1.1230 11.4884 -2.3357 
0.0000 93.1000 0.0000 66.9756 -36.5892 -14.8991 -71.0066 -0.2885 87.9982 105.8522 68.7541 -19.0812 -8.3748 18.3512 5.6239 -130.2141 34.9965 159.3191 169.5054 76.8382 -145.2138 0.1514 -15.3487 -13.2204 -61.1136 23.1331 -164.6663 21.8177 0.0120 -90.4800 -0.1707 -0.1372 -0.0466 -1.1997 5.6137 22.0625 -124.5776 4.4219 101.0932 7.3408 -4.2105 64.7666 0.1650 0.2062 0.2759 -52.0734 11.9003 91.1141 -2.3509 42.3568 2.4220 -5.1067 -5.7153 -0.4933 5.4309 -10.9554 -4.0946 -35.7623 -16.5122 65.2517 0.0901 41.9186 -11.0749 -3.9249 -8.3591 0.3253 -0.0027 3.7843 -2.3493 
0.0000 93.1000 0.0000 65.9226 -32.0129 -15.8297 -71.0107 -0.6647 87.9972 106.0813 70.1353 -23.3889 -8.8890 18.8258 7.6557 -129.2865 36.4339 155.3301 162.9108 78.7724 -137.2961 0.0052 -17.0350 -17.2522 -61.1486 20.9256 -162.8494 20.8100 -0.2076 -90.3914 0.0085 -0.4428 0.1318 -1.1752 5.3624 24.3724 -133.7670 8.4847 100.7252 7.5898 -4.1060 66.0851 0.3922 0.5195 0.3642 -49.3773 11.2734 92.7486 -1.9290 39.3246 -0.1832 -4.8262 -6.5965 -0.4629 5.1922 -12.4715 -0.8794 -33.1947 -16.6095 74.1813 1.2525 42.1301 -6.9836 -3.3694 -5.4322 -0.0939 1.5573 -1.0930 -8.4639 
